<?xml version="1.0" encoding="utf-8" standalone="no"?>
<!DOCTYPE svg PUBLIC "-//W3C//DTD SVG 1.1//EN"
  "http://www.w3.org/Graphics/SVG/1.1/DTD/svg11.dtd">
<svg xmlns:xlink="http://www.w3.org/1999/xlink" width="75pt" height="75pt" viewBox="31 37 75 75" xmlns="http://www.w3.org/2000/svg" version="1.1">
 <metadata>
  <rdf:RDF xmlns:dc="http://purl.org/dc/elements/1.1/" xmlns:cc="http://creativecommons.org/ns#" xmlns:rdf="http://www.w3.org/1999/02/22-rdf-syntax-ns#">
   <cc:Work>
    <dc:type rdf:resource="http://purl.org/dc/dcmitype/StillImage"/>
    <dc:date>2022-10-18T16:46:51.840576</dc:date>
    <dc:format>image/svg+xml</dc:format>
    <dc:creator>
     <cc:Agent>
      <dc:title>Matplotlib v3.6.1, https://matplotlib.org/</dc:title>
     </cc:Agent>
    </dc:creator>
   </cc:Work>
  </rdf:RDF>
 </metadata>
 <defs>
  <style type="text/css">*{stroke-linejoin: round; stroke-linecap: butt}</style>
 </defs>
 <g id="figure_1">
  <g id="patch_1">
   <path d="M 0 144 
L 144 144 
L 144 0 
L 0 0 
L 0 144 
z
" style="fill: none"/>
  </g>
  <g id="axes_1">
   <g id="line2d_1">
    <path d="M 73.8 93.51 
L 84.583633 76.148124 
" clip-path="url(#p4ff1177234)" style="fill: none; stroke: #808080; stroke-width: 0.5; stroke-linecap: square"/>
   </g>
   <g id="line2d_2">
    <path d="M 73.8 93.51 
L 56.872842 84.723682 
" clip-path="url(#p4ff1177234)" style="fill: none; stroke: #808080; stroke-width: 0.5; stroke-linecap: square"/>
   </g>
   <g id="line2d_3">
    <path d="M 73.8 93.51 
L 79.299426 50.061957 
" clip-path="url(#p4ff1177234)" style="fill: none; stroke: #808080; stroke-width: 0.5; stroke-linecap: square"/>
   </g>
   <g id="line2d_4">
    <path d="M 73.8 93.51 
L 67.698306 65.961114 
" clip-path="url(#p4ff1177234)" style="fill: none; stroke: #808080; stroke-width: 0.5; stroke-linecap: square"/>
   </g>
   <g id="line2d_5">
    <path d="M 73.8 93.51 
L 83.482154 97.750049 
" clip-path="url(#p4ff1177234)" style="fill: none; stroke: #808080; stroke-width: 0.5; stroke-linecap: square"/>
   </g>
   <g id="line2d_6">
    <path d="M 73.8 93.51 
L 49.268072 68.421114 
" clip-path="url(#p4ff1177234)" style="fill: none; stroke: #808080; stroke-width: 0.5; stroke-linecap: square"/>
   </g>
   <g id="patch_2">
    <path d="M 84.583633 83.078124 
C 86.433425 83.078124 88.207703 82.347935 89.515703 81.048374 
C 90.823703 79.748812 91.558633 77.985981 91.558633 76.148124 
C 91.558633 74.310266 90.823703 72.547435 89.515703 71.247874 
C 88.207703 69.948312 86.433425 69.218124 84.583633 69.218124 
C 82.733841 69.218124 80.959563 69.948312 79.651563 71.247874 
C 78.343563 72.547435 77.608633 74.310266 77.608633 76.148124 
C 77.608633 77.985981 78.343563 79.748812 79.651563 81.048374 
C 80.959563 82.347935 82.733841 83.078124 84.583633 83.078124 
z
" clip-path="url(#p4ff1177234)" style="stroke: #000000; stroke-linejoin: miter"/>
   </g>
   <g id="patch_3">
    <path d="M 56.872842 91.653682 
C 58.722634 91.653682 60.496912 90.923493 61.804912 89.623932 
C 63.112912 88.32437 63.847842 86.561539 63.847842 84.723682 
C 63.847842 82.885824 63.112912 81.122993 61.804912 79.823432 
C 60.496912 78.52387 58.722634 77.793682 56.872842 77.793682 
C 55.023051 77.793682 53.248773 78.52387 51.940773 79.823432 
C 50.632772 81.122993 49.897842 82.885824 49.897842 84.723682 
C 49.897842 86.561539 50.632772 88.32437 51.940773 89.623932 
C 53.248773 90.923493 55.023051 91.653682 56.872842 91.653682 
z
" clip-path="url(#p4ff1177234)" style="stroke: #000000; stroke-linejoin: miter"/>
   </g>
   <g id="patch_4">
    <path d="M 79.299426 56.991957 
C 81.149218 56.991957 82.923496 56.261768 84.231496 54.962207 
C 85.539496 53.662645 86.274426 51.899814 86.274426 50.061957 
C 86.274426 48.224099 85.539496 46.461268 84.231496 45.161707 
C 82.923496 43.862145 81.149218 43.131957 79.299426 43.131957 
C 77.449634 43.131957 75.675357 43.862145 74.367356 45.161707 
C 73.059356 46.461268 72.324426 48.224099 72.324426 50.061957 
C 72.324426 51.899814 73.059356 53.662645 74.367356 54.962207 
C 75.675357 56.261768 77.449634 56.991957 79.299426 56.991957 
z
" clip-path="url(#p4ff1177234)" style="stroke: #000000; stroke-linejoin: miter"/>
   </g>
   <g id="patch_5">
    <path d="M 67.698306 72.891114 
C 69.548097 72.891114 71.322375 72.160926 72.630376 70.861364 
C 73.938376 69.561803 74.673306 67.798972 74.673306 65.961114 
C 74.673306 64.123257 73.938376 62.360426 72.630376 61.060864 
C 71.322375 59.761303 69.548097 59.031114 67.698306 59.031114 
C 65.848514 59.031114 64.074236 59.761303 62.766236 61.060864 
C 61.458236 62.360426 60.723306 64.123257 60.723306 65.961114 
C 60.723306 67.798972 61.458236 69.561803 62.766236 70.861364 
C 64.074236 72.160926 65.848514 72.891114 67.698306 72.891114 
z
" clip-path="url(#p4ff1177234)" style="stroke: #000000; stroke-linejoin: miter"/>
   </g>
   <g id="patch_6">
    <path d="M 83.482154 104.680049 
C 85.331945 104.680049 87.106223 103.94986 88.414224 102.650299 
C 89.722224 101.350737 90.457154 99.587906 90.457154 97.750049 
C 90.457154 95.912191 89.722224 94.14936 88.414224 92.849799 
C 87.106223 91.550237 85.331945 90.820049 83.482154 90.820049 
C 81.632362 90.820049 79.858084 91.550237 78.550084 92.849799 
C 77.242084 94.14936 76.507154 95.912191 76.507154 97.750049 
C 76.507154 99.587906 77.242084 101.350737 78.550084 102.650299 
C 79.858084 103.94986 81.632362 104.680049 83.482154 104.680049 
z
" clip-path="url(#p4ff1177234)" style="stroke: #000000; stroke-linejoin: miter"/>
   </g>
   <g id="patch_7">
    <path d="M 49.268072 75.351114 
C 51.117864 75.351114 52.892142 74.620926 54.200142 73.321364 
C 55.508142 72.021803 56.243072 70.258972 56.243072 68.421114 
C 56.243072 66.583257 55.508142 64.820426 54.200142 63.520864 
C 52.892142 62.221303 51.117864 61.491114 49.268072 61.491114 
C 47.418281 61.491114 45.644003 62.221303 44.336002 63.520864 
C 43.028002 64.820426 42.293072 66.583257 42.293072 68.421114 
C 42.293072 70.258972 43.028002 72.021803 44.336002 73.321364 
C 45.644003 74.620926 47.418281 75.351114 49.268072 75.351114 
z
" clip-path="url(#p4ff1177234)" style="stroke: #000000; stroke-linejoin: miter"/>
   </g>
  </g>
 </g>
 <defs>
  <clipPath id="p4ff1177234">
   <rect x="18" y="17.28" width="111.6" height="110.88"/>
  </clipPath>
 </defs>
</svg>
